<svg height="654" width="720" xmlns="http://www.w3.org/2000/svg">
<rect height="654" fill="#555" width="720"></rect>
<text fill="#7f7" font-family="Courier New" font-size="12" xml:space="preserve">
<tspan x="10" y="26">└─┬ dependency-check@2.8.0 </tspan>
<tspan x="10" y="42">  ├─┬ async@2.3.0 </tspan>
<tspan x="10" y="58">  │ └── lodash@4.17.4 </tspan>
<tspan x="10" y="74">  ├── builtins@1.0.3 </tspan>
<tspan x="10" y="90">  ├─┬ debug@2.6.3 </tspan>
<tspan x="10" y="106">  │ └── ms@0.7.2 </tspan>
<tspan x="10" y="122">  ├─┬ detective@4.5.0 </tspan>
<tspan x="10" y="138">  │ ├── acorn@4.0.11 </tspan>
<tspan x="10" y="154">  │ └── defined@1.0.0 </tspan>
<tspan x="10" y="170">  ├─┬ is-relative@0.2.1 </tspan>
<tspan x="10" y="186">  │ └─┬ is-unc-path@0.1.2 </tspan>
<tspan x="10" y="202">  │   └── unc-path-regex@0.1.2 </tspan>
<tspan x="10" y="218">  ├── minimist@1.2.0 </tspan>
<tspan x="10" y="234">  ├─┬ read-package-json@2.0.5 </tspan>
<tspan x="10" y="250">  │ ├─┬ glob@7.1.1 </tspan>
<tspan x="10" y="266">  │ │ ├── fs.realpath@1.0.0 </tspan>
<tspan x="10" y="282">  │ │ ├─┬ inflight@1.0.6 </tspan>
<tspan x="10" y="298">  │ │ │ └── wrappy@1.0.2 </tspan>
<tspan x="10" y="314">  │ │ ├── inherits@2.0.3 </tspan>
<tspan x="10" y="330">  │ │ ├─┬ minimatch@3.0.3 </tspan>
<tspan x="10" y="346">  │ │ │ └─┬ brace-expansion@1.1.6 </tspan>
<tspan x="10" y="362">  │ │ │   ├── balanced-match@0.4.2 </tspan>
<tspan x="10" y="378">  │ │ │   └── concat-map@0.0.1 </tspan>
<tspan x="10" y="394">  │ │ ├── once@1.4.0 </tspan>
<tspan x="10" y="410">  │ │ └── path-is-absolute@1.0.1 </tspan>
<tspan x="10" y="426">  │ ├── graceful-fs@4.1.11 </tspan>
<tspan x="10" y="442">  │ ├─┬ json-parse-helpfulerror@1.0.3 </tspan>
<tspan x="10" y="458">  │ │ └── jju@1.3.0 </tspan>
<tspan x="10" y="474">  │ └─┬ normalize-package-data@2.3.6 </tspan>
<tspan x="10" y="490">  │   ├── hosted-git-info@2.4.1 </tspan>
<tspan x="10" y="506">  │   ├─┬ is-builtin-module@1.0.0 </tspan>
<tspan x="10" y="522">  │   │ └── builtin-modules@1.1.1 </tspan>
<tspan x="10" y="538">  │   ├── semver@5.3.0 </tspan>
<tspan x="10" y="554">  │   └─┬ validate-npm-package-license@3.0.1 </tspan>
<tspan x="10" y="570">  │     ├─┬ spdx-correct@1.0.2 </tspan>
<tspan x="10" y="586">  │     │ └── spdx-license-ids@1.2.2 </tspan>
<tspan x="10" y="602">  │     └── spdx-expression-parse@1.0.4 </tspan>
<tspan x="10" y="618">  └─┬ resolve@1.3.2 </tspan>
<tspan x="10" y="634">    └── path-parse@1.0.5</tspan>
</text>
</svg>
